<svg width="37" height="37" viewBox="0 0 37 37" fill="none" xmlns="http://www.w3.org/2000/svg">
<path d="M32.0281 3.46875H4.97188C3.96038 3.47028 2.99075 3.87277 2.27551 4.58801C1.56027 5.30325 1.15778 6.27288 1.15625 7.28438V29.7156C1.15778 30.7271 1.56027 31.6968 2.27551 32.412C2.99075 33.1272 3.96038 33.5297 4.97188 33.5312H32.0281C33.0396 33.5297 34.0093 33.1272 34.7245 32.412C35.4397 31.6968 35.8422 30.7271 35.8438 29.7156V7.28438C35.8422 6.27288 35.4397 5.30325 34.7245 4.58801C34.0093 3.87277 33.0396 3.47028 32.0281 3.46875ZM33.5312 29.7156C33.5312 30.1143 33.3729 30.4966 33.091 30.7785C32.8091 31.0604 32.4268 31.2188 32.0281 31.2188H4.97188C4.57322 31.2188 4.1909 31.0604 3.90901 30.7785C3.62711 30.4966 3.46875 30.1143 3.46875 29.7156V12.7188H33.5312V29.7156ZM33.5312 10.4062H3.46875V7.28438C3.46875 6.88572 3.62711 6.5034 3.90901 6.22151C4.1909 5.93961 4.57322 5.78125 4.97188 5.78125H32.0281C32.4268 5.78125 32.8091 5.93961 33.091 6.22151C33.3729 6.5034 33.5312 6.88572 33.5312 7.28438V10.4062Z" fill="black"/>
<path d="M6.9375 9.25C7.57608 9.25 8.09375 8.73233 8.09375 8.09375C8.09375 7.45517 7.57608 6.9375 6.9375 6.9375C6.29892 6.9375 5.78125 7.45517 5.78125 8.09375C5.78125 8.73233 6.29892 9.25 6.9375 9.25Z" fill="black"/>
<path d="M10.4062 9.25C11.0448 9.25 11.5625 8.73233 11.5625 8.09375C11.5625 7.45517 11.0448 6.9375 10.4062 6.9375C9.76767 6.9375 9.25 7.45517 9.25 8.09375C9.25 8.73233 9.76767 9.25 10.4062 9.25Z" fill="black"/>
<path d="M13.875 9.25C14.5136 9.25 15.0312 8.73233 15.0312 8.09375C15.0312 7.45517 14.5136 6.9375 13.875 6.9375C13.2364 6.9375 12.7188 7.45517 12.7188 8.09375C12.7188 8.73233 13.2364 9.25 13.875 9.25Z" fill="black"/>
<path d="M9.25 19.6562H19.869C20.1045 20.3321 20.5444 20.918 21.1279 21.3325C21.7113 21.7471 22.4093 21.9698 23.125 21.9698C23.8407 21.9698 24.5387 21.7471 25.1221 21.3325C25.7056 20.918 26.1455 20.3321 26.381 19.6562H28.9062C29.2129 19.6562 29.507 19.5344 29.7238 19.3176C29.9407 19.1007 30.0625 18.8067 30.0625 18.5C30.0625 18.1933 29.9407 17.8992 29.7238 17.6824C29.507 17.4656 29.2129 17.3437 28.9062 17.3437H26.381C26.1455 16.6679 25.7056 16.082 25.1221 15.6674C24.5387 15.2529 23.8407 15.0302 23.125 15.0302C22.4093 15.0302 21.7113 15.2529 21.1279 15.6674C20.5444 16.082 20.1045 16.6679 19.869 17.3437H9.25C8.94334 17.3437 8.64925 17.4656 8.43241 17.6824C8.21557 17.8992 8.09375 18.1933 8.09375 18.5C8.09375 18.8067 8.21557 19.1007 8.43241 19.3176C8.64925 19.5344 8.94334 19.6562 9.25 19.6562ZM23.125 17.3437C23.3537 17.3437 23.5772 17.4116 23.7674 17.5386C23.9575 17.6657 24.1057 17.8462 24.1932 18.0575C24.2808 18.2688 24.3036 18.5013 24.259 18.7256C24.2144 18.9499 24.1043 19.1559 23.9426 19.3176C23.7809 19.4793 23.5749 19.5894 23.3506 19.634C23.1263 19.6786 22.8938 19.6557 22.6825 19.5682C22.4712 19.4807 22.2907 19.3325 22.1636 19.1424C22.0366 18.9522 21.9688 18.7287 21.9688 18.5C21.9688 18.1933 22.0906 17.8992 22.3074 17.6824C22.5242 17.4656 22.8183 17.3437 23.125 17.3437Z" fill="black"/>
<path d="M9.25 26.5937H11.7752C12.0107 27.2696 12.4507 27.8555 13.0341 28.27C13.6175 28.6846 14.3155 28.9073 15.0312 28.9073C15.747 28.9073 16.445 28.6846 17.0284 28.27C17.6118 27.8555 18.0518 27.2696 18.2872 26.5937H28.9062C29.2129 26.5937 29.507 26.4719 29.7238 26.2551C29.9407 26.0382 30.0625 25.7442 30.0625 25.4375C30.0625 25.1308 29.9407 24.8367 29.7238 24.6199C29.507 24.4031 29.2129 24.2812 28.9062 24.2812H18.2872C18.0518 23.6054 17.6118 23.0195 17.0284 22.6049C16.445 22.1904 15.747 21.9677 15.0312 21.9677C14.3155 21.9677 13.6175 22.1904 13.0341 22.6049C12.4507 23.0195 12.0107 23.6054 11.7752 24.2812H9.25C8.94334 24.2812 8.64925 24.4031 8.43241 24.6199C8.21557 24.8367 8.09375 25.1308 8.09375 25.4375C8.09375 25.7442 8.21557 26.0382 8.43241 26.2551C8.64925 26.4719 8.94334 26.5937 9.25 26.5937ZM15.0312 24.2812C15.2599 24.2812 15.4835 24.3491 15.6736 24.4761C15.8638 24.6032 16.012 24.7837 16.0995 24.995C16.187 25.2063 16.2099 25.4388 16.1653 25.6631C16.1207 25.8874 16.0105 26.0934 15.8488 26.2551C15.6871 26.4168 15.4811 26.5269 15.2568 26.5715C15.0325 26.6161 14.8 26.5932 14.5888 26.5057C14.3775 26.4182 14.1969 26.27 14.0699 26.0799C13.9428 25.8897 13.875 25.6662 13.875 25.4375C13.875 25.1308 13.9968 24.8367 14.2137 24.6199C14.4305 24.4031 14.7246 24.2812 15.0312 24.2812Z" fill="black"/>
</svg>
