<svg width="46" height="47" viewBox="0 0 46 47" fill="none" xmlns="http://www.w3.org/2000/svg">
<path fill-rule="evenodd" clip-rule="evenodd" d="M11.5 12.2395H8.625C6.24258 12.2395 4.3125 14.2115 4.3125 16.6458V34.2708C4.3125 35.4399 4.76675 36.56 5.57558 37.3865C6.38442 38.2129 7.48075 38.677 8.625 38.677H37.375C38.5192 38.677 39.6156 38.2129 40.4244 37.3865C41.2332 36.56 41.6875 35.4399 41.6875 34.2708C41.6875 29.7353 41.6875 21.5416 41.6875 21.5416C41.6875 20.7308 41.0435 20.0728 40.25 20.0728C39.4565 20.0728 38.8125 20.7308 38.8125 21.5416V34.2708C38.8125 34.6605 38.6611 35.0345 38.3908 35.3087C38.1225 35.5848 37.7564 35.7395 37.375 35.7395H8.625C8.24358 35.7395 7.8775 35.5848 7.60917 35.3087C7.33892 35.0345 7.1875 34.6605 7.1875 34.2708V16.6458C7.1875 15.835 7.8315 15.177 8.625 15.177H11.5C12.2935 15.177 12.9375 14.519 12.9375 13.7083C12.9375 12.8975 12.2935 12.2395 11.5 12.2395Z" fill="#036893"/>
<path fill-rule="evenodd" clip-rule="evenodd" d="M21.5625 37.2083V43.0833C21.5625 43.894 22.2065 44.552 23 44.552C23.7935 44.552 24.4375 43.894 24.4375 43.0833V37.2083C24.4375 36.3975 23.7935 35.7395 23 35.7395C22.2065 35.7395 21.5625 36.3975 21.5625 37.2083Z" fill="#036893"/>
<path fill-rule="evenodd" clip-rule="evenodd" d="M14.375 44.552H31.625C32.4185 44.552 33.0625 43.894 33.0625 43.0833C33.0625 42.2725 32.4185 41.6145 31.625 41.6145H14.375C13.5815 41.6145 12.9375 42.2725 12.9375 43.0833C12.9375 43.894 13.5815 44.552 14.375 44.552Z" fill="#036893"/>
<path fill-rule="evenodd" clip-rule="evenodd" d="M41.2486 3.89116C41.1106 3.41137 40.7445 3.03733 40.2749 2.89633C40.2749 2.89633 32.0409 0.377914 25.2713 7.29671C21.9612 10.6768 18.5476 16.2287 18.2831 19.4012C18.2467 19.832 18.3981 20.2589 18.699 20.5644L23.9564 25.9361C24.2554 26.2436 24.6733 26.3983 25.0949 26.3611C28.1999 26.0908 33.6337 22.603 36.9418 19.221C43.7134 12.3042 41.2486 3.89116 41.2486 3.89116ZM38.6573 5.544C38.9678 7.52191 39.2553 12.7056 34.9102 17.1452C32.2843 19.8281 28.1827 22.7323 25.4763 23.3355L21.2443 19.0115C21.8347 16.2463 24.6771 12.0555 27.3029 9.37254C31.648 4.933 36.7214 5.22675 38.6573 5.544Z" fill="#036893"/>
<path fill-rule="evenodd" clip-rule="evenodd" d="M31.4257 21.2068L31.1458 24.9726C31.0845 25.8049 30.613 26.5471 29.8923 26.9427L28.1635 27.8945V24.8982C28.1635 24.0875 27.5195 23.4295 26.726 23.4295C25.9325 23.4295 25.2885 24.0875 25.2885 24.8982V30.3541C25.2885 30.8711 25.553 31.3509 25.9881 31.6153C26.4232 31.8797 26.9617 31.8934 27.4064 31.6466C27.4064 31.6466 29.5933 30.4442 31.257 29.5297C32.8382 28.6582 33.8771 27.025 34.0132 25.1959L34.293 21.4281C34.3524 20.6193 33.7582 19.9143 32.9686 19.8516C32.177 19.7909 31.4851 20.398 31.4257 21.2068Z" fill="#036893"/>
<path fill-rule="evenodd" clip-rule="evenodd" d="M23.1112 10.0031L19.4235 10.289C17.6333 10.428 16.0348 11.4895 15.1819 13.1051C14.2868 14.8049 13.11 17.0394 13.11 17.0394C12.8685 17.4937 12.8819 18.044 13.1407 18.4885C13.3994 18.9331 13.869 19.2033 14.375 19.2033H19.7148C20.5083 19.2033 21.1523 18.5453 21.1523 17.7346C21.1523 16.9238 20.5083 16.2658 19.7148 16.2658H16.7823L17.7138 14.4994C18.101 13.7631 18.8274 13.2813 19.642 13.2187L23.3278 12.9328C24.1193 12.872 24.7135 12.1651 24.6541 11.3563C24.5928 10.5495 23.9028 9.94238 23.1112 10.0031Z" fill="#036893"/>
<path fill-rule="evenodd" clip-rule="evenodd" d="M16.6443 22.4621L13.7962 25.3702C13.2365 25.944 13.2365 26.8742 13.7962 27.448C14.3577 28.0198 15.2682 28.0198 15.8297 27.448L18.676 24.5379C19.2376 23.9661 19.2376 23.0339 18.676 22.4621C18.1163 21.8883 17.204 21.8883 16.6443 22.4621Z" fill="#036893"/>
<path fill-rule="evenodd" clip-rule="evenodd" d="M20.0675 25.9596L17.2193 28.8678C16.6597 29.4416 16.6597 30.3718 17.2193 30.9456C17.7809 31.5174 18.6913 31.5174 19.2529 30.9456L22.0992 28.0355C22.6608 27.4636 22.6608 26.5315 22.0992 25.9596C21.5395 25.3858 20.6272 25.3858 20.0675 25.9596Z" fill="#036893"/>
</svg>
