<svg width="46" height="46" viewBox="0 0 46 46" fill="none" xmlns="http://www.w3.org/2000/svg">
<g clip-path="url(#clip0_339_16)">
<path d="M45.6841 26.4148L39.9341 19.2273C39.8815 19.1609 39.8229 19.0999 39.7587 19.0448C39.753 19.0398 39.7471 19.0353 39.7408 19.0311C39.6474 18.9518 39.5439 18.8851 39.433 18.8328C39.4239 18.8282 39.4165 18.8205 39.4074 18.8163L23.5949 11.6288C23.2165 11.4568 22.7828 11.4568 22.4044 11.6288L6.59193 18.8163C6.5828 18.8205 6.57543 18.8282 6.56526 18.8335C6.45506 18.8858 6.35188 18.9521 6.25852 19.0311C6.25221 19.0353 6.24624 19.0398 6.24062 19.0448C6.1764 19.0999 6.11779 19.1609 6.06515 19.2273L0.31515 26.4148C0.0382484 26.7608 -0.0635277 27.2156 0.0393013 27.6469C0.14213 28.0779 0.438334 28.4376 0.841929 28.6212L5.74964 30.8515V37.375C5.74964 37.9386 6.07884 38.4503 6.59193 38.6837L22.4044 45.8712C22.4469 45.8908 22.4915 45.8993 22.5346 45.9144C22.5778 45.9295 22.6027 45.9396 22.6382 45.9484C22.8744 46.0172 23.1249 46.0172 23.3611 45.9484C23.3959 45.9386 23.4303 45.9273 23.464 45.9144C23.5078 45.8993 23.5524 45.8908 23.5949 45.8712L39.4074 38.6837C39.9204 38.4503 40.2496 37.9386 40.2496 37.375V30.8515L45.1574 28.6236C45.561 28.4398 45.8572 28.0804 45.96 27.6491C46.0628 27.2177 45.961 26.7633 45.6841 26.4169V26.4148ZM22.9996 14.5189L35.3384 20.125L22.9996 25.7311L10.6609 20.125L22.9996 14.5189ZM7.61039 21.8966L20.7234 27.8565L16.8264 32.7284L7.78236 28.617L3.71342 26.7685L7.61039 21.8966ZM8.62464 32.1584L16.6544 35.8087C16.7415 35.8473 16.832 35.8771 16.9247 35.8978C16.9492 35.9038 16.9752 35.9066 17.0001 35.9108C17.0682 35.9235 17.1373 35.9308 17.2065 35.9333C17.2209 35.9333 17.2346 35.9375 17.2489 35.9375H17.2819C17.3725 35.9361 17.4627 35.9259 17.5515 35.9073H17.568C17.6638 35.8845 17.7568 35.8522 17.8463 35.8111C17.8649 35.8031 17.8828 35.7922 17.9014 35.7824C17.9708 35.7469 18.0372 35.7055 18.1 35.6592C18.12 35.6441 18.1407 35.6308 18.1604 35.6139C18.2383 35.5518 18.3092 35.4813 18.3716 35.4033L21.5621 31.4095V42.3301L8.62464 36.4492V32.1584ZM37.3746 36.4492L24.4371 42.3301V31.4095L27.6269 35.3963C27.6894 35.4732 27.76 35.543 27.8368 35.6055C27.8582 35.6234 27.8807 35.6385 27.9028 35.655C27.9632 35.6988 28.0267 35.7378 28.0927 35.7722C28.1144 35.7831 28.1344 35.795 28.1565 35.8052C28.2443 35.8459 28.3359 35.8775 28.4299 35.8992L28.4534 35.9031C28.5405 35.921 28.6286 35.9308 28.7174 35.9326C28.7282 35.9326 28.7388 35.9361 28.7503 35.9361C28.7619 35.9361 28.7784 35.9319 28.7921 35.9319C28.8623 35.9294 28.9325 35.9217 29.002 35.9094C29.0255 35.9052 29.0494 35.9024 29.0739 35.8964C29.1669 35.8761 29.2578 35.8462 29.3449 35.8073L37.3746 32.1584V36.4492ZM38.2183 28.6149L29.1736 32.7263L25.2766 27.8544L38.3896 21.8945L42.2866 26.7664L38.2183 28.6149Z" fill="#036893"/>
<path d="M22.9996 7.1875C23.7935 7.1875 24.4371 6.54385 24.4371 5.75V1.4375C24.4371 0.643646 23.7935 0 22.9996 0C22.2058 0 21.5621 0.643646 21.5621 1.4375V5.75C21.5621 6.54385 22.2058 7.1875 22.9996 7.1875Z" fill="#036893"/>
<path d="M34.4997 11.5C34.8812 11.5007 35.2468 11.3491 35.516 11.0789L38.391 8.20388C38.7648 7.84275 38.9146 7.3086 38.783 6.80569C38.6514 6.30313 38.2591 5.91076 37.7562 5.77915C37.2536 5.64755 36.7191 5.7974 36.3583 6.17117L33.4833 9.04617C33.0723 9.45748 32.9495 10.0755 33.172 10.6125C33.3942 11.1498 33.9185 11.5 34.4997 11.5Z" fill="#036893"/>
<path d="M10.4833 11.0788C11.0473 11.6235 11.9439 11.6158 12.4984 11.0613C13.0529 10.5068 13.0607 9.61009 12.516 9.04611L9.64099 6.17111C9.07701 5.62644 8.18033 5.63416 7.62583 6.18866C7.07132 6.74317 7.0636 7.63985 7.60828 8.20383L10.4833 11.0788Z" fill="#036893"/>
</g>
<defs>
<clipPath id="clip0_339_16">
<rect width="46" height="46" fill="white"/>
</clipPath>
</defs>
</svg>
