<svg width="39" height="39" viewBox="0 0 39 39" fill="none" xmlns="http://www.w3.org/2000/svg">
<g clip-path="url(#clip0_354_149)">
<path d="M31.002 8.37891H23.3848C22.7538 8.37891 22.2422 8.89048 22.2422 9.52148C22.2422 10.1525 22.7538 10.6641 23.3848 10.6641H31.002C31.633 10.6641 32.1446 10.1525 32.1446 9.52148C32.1446 8.89048 31.633 8.37891 31.002 8.37891Z" fill="#036893"/>
<path d="M20.9473 18.4336H8.75983C8.12882 18.4336 7.61725 18.9452 7.61725 19.5762C7.61725 20.2072 8.12882 20.7188 8.75983 20.7188H20.9473C21.5783 20.7188 22.0899 20.2072 22.0899 19.5762C22.0899 18.9451 21.5783 18.4336 20.9473 18.4336Z" fill="#036893"/>
<path d="M20.9473 23.0039H8.75983C8.12882 23.0039 7.61725 23.5155 7.61725 24.1465C7.61725 24.7775 8.12882 25.2891 8.75983 25.2891H20.9473C21.5783 25.2891 22.0899 24.7775 22.0899 24.1465C22.0899 23.5155 21.5783 23.0039 20.9473 23.0039Z" fill="#036893"/>
<path d="M20.9473 27.5742H8.75983C8.12882 27.5742 7.61725 28.0858 7.61725 28.7168C7.61725 29.3478 8.12882 29.8594 8.75983 29.8594H20.9473C21.5783 29.8594 22.0899 29.3478 22.0899 28.7168C22.0899 28.0858 21.5783 27.5742 20.9473 27.5742Z" fill="#036893"/>
<path d="M37.5469 17.4596C38.499 15.7218 38.9999 13.7782 38.9999 11.8066C38.9999 5.29637 33.7034 0 27.1933 0C21.5834 0 16.8036 3.93297 15.6508 9.31451C15.3867 9.30049 15.121 9.29295 14.8534 9.29295C6.66324 9.29295 -3.65545e-05 15.9562 -3.65545e-05 24.1464C-3.65545e-05 26.7677 0.697468 29.335 2.02194 31.6061L0.0586157 37.4961C-0.0782649 37.9066 0.028604 38.3592 0.334662 38.6653C0.552437 38.8831 0.844403 39.0001 1.14269 39C1.26358 39 1.38553 38.9808 1.50382 38.9413L7.39372 36.978C9.66478 38.3024 12.2322 38.9999 14.8535 38.9999C23.0437 38.9999 29.707 32.3367 29.707 24.1464C29.707 23.8775 29.6994 23.6103 29.6852 23.3447C30.7879 23.1059 31.8464 22.7095 32.8468 22.1604L37.5291 23.565C37.6372 23.5975 37.7477 23.6132 37.8574 23.6132C38.1561 23.6132 38.4479 23.496 38.6653 23.2785C38.9626 22.9814 39.0726 22.5449 38.9518 22.1423L37.5469 17.4596ZM14.8535 36.7148C12.4831 36.7148 10.1637 36.0394 8.14607 34.7614C7.96105 34.6443 7.74868 34.5841 7.53464 34.5841C7.41322 34.5841 7.29127 34.6034 7.17344 34.6427L2.94926 36.0508L4.35729 31.8266C4.46584 31.501 4.42227 31.1439 4.23854 30.8539C2.96068 28.8363 2.28512 26.5168 2.28512 24.1464C2.28512 17.2163 7.92327 11.5781 14.8534 11.5781C21.7836 11.5781 27.4218 17.2163 27.4218 24.1464C27.4218 31.0766 21.7837 36.7148 14.8535 36.7148ZM35.2167 17.6447L36.1533 20.7665L33.0315 19.83C32.7219 19.7372 32.3876 19.7797 32.1113 19.9471C31.2539 20.4664 30.3405 20.8413 29.3856 21.0688C28.9302 18.9163 28.0077 16.9342 26.7288 15.2343H31.002C31.633 15.2343 32.1446 14.7228 32.1446 14.0918C32.1446 13.4608 31.633 12.9492 31.002 12.9492H24.6023C22.7293 11.3164 20.4443 10.1451 17.9262 9.61333C18.9229 5.36797 22.7326 2.28515 27.1934 2.28515C32.4436 2.28515 36.7149 6.55648 36.7149 11.8066C36.7149 13.5322 36.2373 15.2327 35.3339 16.7245C35.1664 17.0008 35.1239 17.3352 35.2167 17.6447Z" fill="#036893"/>
</g>
<defs>
<clipPath id="clip0_354_149">
<rect width="39" height="39" fill="white"/>
</clipPath>
</defs>
</svg>
