<svg width="41" height="40" viewBox="0 0 41 40" fill="none" xmlns="http://www.w3.org/2000/svg">
<g clip-path="url(#clip0_339_29)">
<path fill-rule="evenodd" clip-rule="evenodd" d="M1.20587 4.70593C0.539904 4.70593 0 5.2326 0 5.88239V34.1177C0 34.7674 0.539904 35.2941 1.20587 35.2941H39.7941C40.4601 35.2941 41 34.7674 41 34.1177V5.88239C41 5.23267 40.4601 4.70593 39.7941 4.70593H1.20587ZM26.5294 32.9412H38.5883V14.1177H2.41174V32.9412H14.4706V30.0032C14.4706 27.4009 16.6268 25.2941 19.2961 25.2941H21.7039C24.3682 25.2941 26.5294 27.4045 26.5294 30.0032V32.9412ZM24.1177 32.9412H16.8823V30.0032C16.8823 28.6995 17.9596 27.6471 19.2961 27.6471H21.7039C23.0357 27.6471 24.1177 28.7036 24.1177 30.0032V32.9412ZM38.5883 7.05885V11.7648H2.41174V7.05885H38.5883ZM5.42645 10.5883C6.09241 10.5883 6.63232 10.0616 6.63232 9.41184C6.63232 8.76211 6.09241 8.23538 5.42645 8.23538C4.76048 8.23538 4.22058 8.76211 4.22058 9.41184C4.22058 10.0616 4.76048 10.5883 5.42645 10.5883ZM9.64703 10.5883C10.313 10.5883 10.8529 10.0616 10.8529 9.41184C10.8529 8.76211 10.313 8.23538 9.64703 8.23538C8.98106 8.23538 8.44116 8.76211 8.44116 9.41184C8.44116 10.0616 8.98106 10.5883 9.64703 10.5883ZM13.8677 10.5883C14.5336 10.5883 15.0735 10.0616 15.0735 9.41184C15.0735 8.76211 14.5336 8.23538 13.8677 8.23538C13.2017 8.23538 12.6618 8.76211 12.6618 9.41184C12.6618 10.0616 13.2016 10.5883 13.8677 10.5883ZM20.5 23.5295C22.498 23.5295 24.1177 21.9493 24.1177 20C24.1177 18.0508 22.498 16.4706 20.5 16.4706C18.502 16.4706 16.8823 18.0507 16.8823 20C16.8823 21.9493 18.502 23.5295 20.5 23.5295ZM20.5 21.1765C19.834 21.1765 19.2941 20.6498 19.2941 20C19.2941 19.3503 19.834 18.8236 20.5 18.8236C21.166 18.8236 21.7059 19.3503 21.7059 20C21.7059 20.6498 21.166 21.1765 20.5 21.1765Z" fill="black"/>
</g>
<defs>
<clipPath id="clip0_339_29">
<rect width="41" height="40" fill="white"/>
</clipPath>
</defs>
</svg>
