<svg width="42" height="40" viewBox="0 0 42 40" fill="none" xmlns="http://www.w3.org/2000/svg">
<g clip-path="url(#clip0_339_42)">
<path d="M2.86871 32.3732C1.20775 32.872 0 34.3526 0 36.0971C0 38.2493 1.83881 40.0002 4.0991 40.0002H27.8873C29.0114 40.0002 30.1439 39.6529 30.428 39.4751C32.5559 38.5522 34.0396 36.5091 34.0396 34.1409V18.039C35.3174 16.8125 36.4801 15.3956 37.4958 13.8253C37.7789 13.3876 37.7295 12.8254 37.374 12.4387L36.5747 11.5693C37.1483 11.4641 37.784 11.3478 38.4078 11.2341C38.8027 11.1622 39.136 10.9108 39.2999 10.5611C41.5688 5.72458 41.9788 1.45294 41.9952 1.27349C42.0611 0.549266 41.425 -0.0576868 40.663 0.00465698C38.8693 0.153641 35.5901 0.805048 32.4509 1.96278H4.09918C3.41964 1.96278 2.86871 2.48747 2.86871 3.13466V9.94317C2.86871 10.3312 3.07289 10.7068 3.43129 10.9274L5.60971 12.2683L3.43129 13.609C3.0797 13.8255 2.86871 14.1977 2.86871 14.5933V32.3732ZM2.46094 36.0971C2.46094 35.2368 3.19577 34.5369 4.0991 34.5369H23.0761C23.0761 36.1627 22.9993 36.7439 23.4188 37.6565H4.0991C3.19577 37.6565 2.46094 36.9569 2.46094 36.0971ZM39.3158 2.55817C39.0393 4.03192 38.459 6.44067 37.3066 9.04864C35.6059 9.35935 34.0034 9.65481 34.0034 9.65481C33.0732 9.8263 32.6863 10.8972 33.3115 11.5772L34.913 13.3194C34.1038 14.4715 33.2071 15.5183 32.2397 16.4397C31.1591 17.4687 29.9153 18.413 28.5363 19.2518L26.7689 18.5545C26.0783 18.2819 25.294 18.655 25.1068 19.3433L24.5973 21.2169C22.886 21.9115 21.2524 22.3921 19.8828 22.7216L30.9136 12.2161C31.3941 11.7586 31.3941 11.0165 30.9136 10.5589C30.4331 10.1013 29.654 10.1013 29.1734 10.5589L18.1472 21.0599C18.8267 18.5073 20.1146 14.9886 22.4983 11.8203L24.7661 12.0164C25.5929 12.0878 26.2523 11.3749 26.081 10.6061L25.6142 8.51067C30.3536 4.50411 36.4838 3.04356 39.3158 2.55817ZM8.54454 11.284L5.32957 9.30528V4.30653H27.4673C25.7216 5.33356 24.3882 6.37224 23.4175 7.25005C23.1073 7.53067 22.9723 7.94458 23.0611 8.34309L23.3275 9.53864L22.0318 9.42661C21.6099 9.39044 21.199 9.56247 20.9423 9.88278C16.4041 15.5466 15.264 22.2546 15.0336 24.0252L10.753 28.1019C10.2724 28.5595 10.2724 29.3015 10.753 29.7592C11.2334 30.2168 12.0125 30.2169 12.4931 29.7592L16.7742 25.682C18.07 25.5275 21.9069 24.9464 26.1434 23.1306C26.4835 22.9847 26.736 22.6997 26.8296 22.3558L27.1341 21.2357L28.1777 21.6474C28.5389 21.79 28.9499 21.7604 29.2847 21.5679C30.0884 21.1058 30.8542 20.6106 31.5787 20.0863V34.1408C31.5787 36.078 29.9243 37.6565 27.8873 37.6565H27.1752C26.272 37.6565 25.5371 36.9566 25.5371 36.0963V33.3651C25.5371 32.7179 24.9861 32.1932 24.3066 32.1932H5.32965V15.2312L8.54462 13.2525C9.29398 12.7912 9.29373 11.745 8.54454 11.284Z" fill="#036893"/>
</g>
<defs>
<clipPath id="clip0_339_42">
<rect width="42" height="40" fill="white"/>
</clipPath>
</defs>
</svg>
