<svg width="36" height="36" viewBox="0 0 36 36" fill="none" xmlns="http://www.w3.org/2000/svg">
<g clip-path="url(#clip0_350_66)">
<path d="M32.8359 0.28125H3.16406C1.41943 0.28125 0 1.70068 0 3.44531V22.4995C0 24.2441 1.41943 25.6635 3.16406 25.6635H13.0759L13.0792 29.793C13.0792 29.7966 13.0787 29.8004 13.0787 29.8043C13.0787 29.8081 13.0792 29.812 13.0792 29.8158L13.0798 30.67C13.0798 30.6766 13.0798 30.6834 13.08 30.69C13.1064 32.0188 13.6244 33.265 14.5382 34.1993C15.4649 35.1469 16.6948 35.6688 18.0016 35.6693C19.3076 35.6693 20.5376 35.1475 21.4645 34.1996C22.3786 33.2655 22.8966 32.0197 22.9235 30.6922C22.9235 30.6851 22.9235 30.6785 22.9235 30.6716L22.9271 25.6635H32.8359C34.5806 25.6635 36 24.2441 36 22.4995V3.44531C36 1.70068 34.5806 0.28125 32.8359 0.28125ZM32.8359 23.5541H22.9287L22.9331 17.4018C22.9331 17.3452 22.9318 17.2889 22.9296 17.2337C22.8969 16.455 22.6176 15.6992 22.1221 15.048L18.841 10.7339C18.6416 10.4719 18.331 10.3178 18.0016 10.3178C17.9797 10.3178 17.958 10.3203 17.9363 10.3217C17.9113 10.32 17.8863 10.3178 17.8607 10.3178H6.25781C5.67526 10.3178 5.20312 10.7902 5.20312 11.3725C5.20312 11.955 5.67526 12.4272 6.25781 12.4272H15.8741L13.881 15.0477C13.3855 15.6992 13.1061 16.4553 13.0732 17.2345C13.071 17.2903 13.0699 17.3463 13.0699 17.4032L13.0743 23.5541H3.16406C2.58261 23.5541 2.10938 23.0812 2.10938 22.4995V8.06094H33.8906V22.4995C33.8906 23.0812 33.4174 23.5541 32.8359 23.5541ZM18.0022 33.5599C16.5245 33.5594 15.3303 32.3891 15.2007 30.8589L20.8023 30.8598C20.6694 32.3665 19.4532 33.5599 18.0022 33.5599ZM15.1867 27.5062H20.8166L20.8158 28.7504L15.1878 28.7496L15.1867 27.5062ZM20.818 25.3968H15.1853L15.1798 18.2134H20.8232L20.818 25.3968ZM18.0014 13.1147L20.2753 16.104H15.7278L18.0014 13.1147ZM3.16406 2.39062H32.8359C33.4174 2.39062 33.8906 2.86386 33.8906 3.44531V5.95157H2.10938V3.44531C2.10938 2.86386 2.58261 2.39062 3.16406 2.39062Z" fill="black"/>
<path d="M5.8988 4.24127C5.8988 4.82355 5.42667 5.29596 4.84412 5.29596C4.26184 5.29596 3.78943 4.82355 3.78943 4.24127C3.78943 3.65872 4.26184 3.18658 4.84412 3.18658C5.42667 3.18658 5.8988 3.65872 5.8988 4.24127Z" fill="black"/>
<path d="M9.48724 4.24127C9.48724 4.82355 9.01483 5.29596 8.43256 5.29596C7.85001 5.29596 7.37787 4.82355 7.37787 4.24127C7.37787 3.65872 7.85001 3.18658 8.43256 3.18658C9.01483 3.18658 9.48724 3.65872 9.48724 4.24127Z" fill="black"/>
<path d="M13.0754 4.24127C13.0754 4.82355 12.603 5.29596 12.0207 5.29596C11.4381 5.29596 10.966 4.82355 10.966 4.24127C10.966 3.65872 11.4381 3.18658 12.0207 3.18658C12.603 3.18658 13.0754 3.65872 13.0754 4.24127Z" fill="black"/>
</g>
<defs>
<clipPath id="clip0_350_66">
<rect width="36" height="36" fill="white"/>
</clipPath>
</defs>
</svg>
