<svg width="40" height="39" viewBox="0 0 40 39" fill="none" xmlns="http://www.w3.org/2000/svg">
<g clip-path="url(#clip0_339_47)">
<path d="M39.9 10.7087L38.4333 17.8425C37.65 21.6287 34.2167 24.375 30.2667 24.375H11.2167C11.9167 26.2925 13.7667 27.625 15.9333 27.625H31.6667C32.5833 27.625 33.3333 28.3563 33.3333 29.25C33.3333 30.1437 32.5833 30.875 31.6667 30.875H15.9333C11.7167 30.875 8.15 27.7875 7.65 23.6925L5.35 4.68C5.25 3.8675 4.53333 3.25 3.7 3.25H1.66667C0.75 3.25 0 2.51875 0 1.625C0 0.73125 0.75 0 1.66667 0H3.7C6.23333 0 8.36667 1.8525 8.66667 4.30625L8.73333 4.875H15C15.9167 4.875 16.6667 5.60625 16.6667 6.5C16.6667 7.39375 15.9167 8.125 15 8.125H9.13333L10.7 21.125H30.2667C32.6333 21.125 34.7 19.4837 35.1667 17.2087L36.6333 10.075C36.7333 9.60375 36.6 9.1 36.2833 8.72625C35.9667 8.3525 35.5 8.125 35 8.125H28.3333C27.4167 8.125 26.6667 7.39375 26.6667 6.5C26.6667 5.60625 27.4167 4.875 28.3333 4.875H35C36.5 4.875 37.9167 5.525 38.8667 6.6625C39.8167 7.8 40.2 9.27875 39.9 10.7087ZM11.6667 32.5C9.83333 32.5 8.33333 33.9625 8.33333 35.75C8.33333 37.5375 9.83333 39 11.6667 39C13.5 39 15 37.5375 15 35.75C15 33.9625 13.5 32.5 11.6667 32.5ZM28.3333 32.5C26.5 32.5 25 33.9625 25 35.75C25 37.5375 26.5 39 28.3333 39C30.1667 39 31.6667 37.5375 31.6667 35.75C31.6667 33.9625 30.1667 32.5 28.3333 32.5ZM15.45 11.7812C14.8167 12.4312 14.8667 13.4712 15.5333 14.0725L18.1333 16.445C19.1167 17.4037 20.4 17.875 21.6833 17.875C22.9667 17.875 24.2167 17.4038 25.1667 16.4775L27.8167 14.0725C28.4833 13.455 28.5167 12.4312 27.9 11.7812C27.2667 11.1313 26.2167 11.0825 25.55 11.7L23.35 13.6988V1.625C23.35 0.73125 22.6 0 21.6833 0C20.7667 0 20.0167 0.73125 20.0167 1.625V13.6988L17.8167 11.7C17.15 11.0825 16.0833 11.1313 15.4667 11.7812H15.45Z" fill="black"/>
</g>
<defs>
<clipPath id="clip0_339_47">
<rect width="40" height="39" fill="white"/>
</clipPath>
</defs>
</svg>
