<svg width="35" height="35" viewBox="0 0 35 35" fill="none" xmlns="http://www.w3.org/2000/svg">
<g clip-path="url(#clip0_339_12)">
<path d="M6.83594 7.72461C6.83594 6.96945 7.44797 6.35742 8.20312 6.35742H26.7969C27.552 6.35742 28.1641 6.96945 28.1641 7.72461C28.1641 8.47977 27.552 9.0918 26.7969 9.0918H8.20312C7.44797 9.0918 6.83594 8.47977 6.83594 7.72461ZM28.1641 13.1934C28.1641 12.4382 27.552 11.8262 26.7969 11.8262H8.20312C7.44797 11.8262 6.83594 12.4382 6.83594 13.1934C6.83594 13.9485 7.44797 14.5605 8.20312 14.5605H26.7969C27.552 14.5605 28.1641 13.9485 28.1641 13.1934ZM8.20312 17.2949C7.44797 17.2949 6.83594 17.907 6.83594 18.6621C6.83594 19.4173 7.44797 20.0293 8.20312 20.0293H14.4922C15.2473 20.0293 15.8594 19.4173 15.8594 18.6621C15.8594 17.907 15.2473 17.2949 14.4922 17.2949H8.20312ZM33.7997 27.9993C35.3979 29.5975 35.3979 32.1994 33.7986 33.7986C32.9992 34.5981 31.9487 34.9981 30.8984 34.9981C29.8482 34.9981 28.7977 34.5981 27.9982 33.7986L20.522 26.3085C20.3553 26.1416 20.2349 25.9346 20.1722 25.7074L18.6434 20.1892C18.5104 19.7086 18.6493 19.1938 19.0063 18.8456C19.3631 18.4976 19.8811 18.371 20.3583 18.516L25.74 20.1508C25.9555 20.2162 26.1515 20.3337 26.3103 20.4931L33.7997 27.9993ZM22.7111 24.631L27.7365 29.6658L29.6704 27.732L24.6169 22.6673L21.942 21.8547L22.7111 24.631ZM31.8651 29.9318L31.6018 29.6677L29.6682 31.6013L29.9326 31.8661C30.4648 32.3983 31.3321 32.3983 31.8651 31.8651C32.3983 31.3321 32.3983 30.4648 31.8651 29.9318ZM29.5312 0H5.46875C2.45319 0 0 2.45319 0 5.46875V29.5312C0 32.5468 2.45319 35 5.46875 35H22.2168C22.972 35 23.584 34.388 23.584 33.6328C23.584 32.8777 22.972 32.2656 22.2168 32.2656H5.46875C3.96111 32.2656 2.73438 31.0389 2.73438 29.5312V5.46875C2.73438 3.96111 3.96111 2.73438 5.46875 2.73438H29.5312C31.0389 2.73438 32.2656 3.96111 32.2656 5.46875V22.2852C32.2656 23.0403 32.8777 23.6523 33.6328 23.6523C34.388 23.6523 35 23.0403 35 22.2852V5.46875C35 2.45319 32.5468 0 29.5312 0Z" fill="#036893"/>
</g>
<defs>
<clipPath id="clip0_339_12">
<rect width="35" height="35" fill="white"/>
</clipPath>
</defs>
</svg>
