<svg width="41" height="41" viewBox="0 0 41 41" fill="none" xmlns="http://www.w3.org/2000/svg">
<g clip-path="url(#clip0_350_71)">
<path d="M24.3438 35.875H16.6562C15.949 35.875 15.375 35.301 15.375 34.5938C15.375 33.8865 15.949 33.3125 16.6562 33.3125H24.3438C25.051 33.3125 25.625 33.8865 25.625 34.5938C25.625 35.301 25.051 35.875 24.3438 35.875Z" fill="black"/>
<path d="M20.5 5.90571C19.7928 5.90571 19.2188 5.33171 19.2188 4.62446V1.28125C19.2188 0.574 19.7928 0 20.5 0C21.2072 0 21.7812 0.574 21.7812 1.28125V4.62446C21.7812 5.33171 21.2072 5.90571 20.5 5.90571Z" fill="black"/>
<path d="M31.7255 10.5558C31.3975 10.5558 31.0695 10.4311 30.82 10.18C30.3195 9.67943 30.3195 8.86797 30.82 8.36742L33.1844 6.00309C33.6849 5.50255 34.4964 5.50255 34.9969 6.00309C35.4975 6.50363 35.4975 7.31509 34.9969 7.81563L32.6326 10.18C32.3815 10.4294 32.0535 10.5558 31.7255 10.5558Z" fill="black"/>
<path d="M39.7188 21.7812H36.3755C35.6683 21.7812 35.0943 21.2072 35.0943 20.5C35.0943 19.7928 35.6683 19.2188 36.3755 19.2188H39.7188C40.426 19.2188 41 19.7928 41 20.5C41 21.2072 40.426 21.7812 39.7188 21.7812Z" fill="black"/>
<path d="M34.0898 35.371C33.7618 35.371 33.4338 35.2463 33.1844 34.9952L30.82 32.6309C30.3195 32.1303 30.3195 31.3189 30.82 30.8183C31.3206 30.3178 32.132 30.3178 32.6326 30.8183L34.9969 33.1827C35.4975 33.6832 35.4975 34.4947 34.9969 34.9952C34.7458 35.2463 34.4178 35.371 34.0898 35.371Z" fill="black"/>
<path d="M6.91022 35.371C6.58222 35.371 6.25422 35.2463 6.0048 34.9952C5.50426 34.4947 5.50426 33.6832 6.0048 33.1827L8.36913 30.8183C8.86968 30.3178 9.68113 30.3178 10.1817 30.8183C10.6822 31.3189 10.6822 32.1303 10.1817 32.6309L7.81734 34.9952C7.56622 35.2463 7.23822 35.371 6.91022 35.371Z" fill="black"/>
<path d="M4.62446 21.7812H1.28125C0.574 21.7812 0 21.2072 0 20.5C0 19.7928 0.574 19.2188 1.28125 19.2188H4.62446C5.33171 19.2188 5.90571 19.7928 5.90571 20.5C5.90571 21.2072 5.33171 21.7812 4.62446 21.7812Z" fill="black"/>
<path d="M9.27455 10.5558C8.94655 10.5558 8.61855 10.4311 8.36913 10.18L6.0048 7.81563C5.50426 7.31509 5.50426 6.50363 6.0048 6.00309C6.50534 5.50255 7.3168 5.50255 7.81734 6.00309L10.1817 8.36742C10.6822 8.86797 10.6822 9.67943 10.1817 10.18C9.92884 10.4294 9.60255 10.5558 9.27455 10.5558Z" fill="black"/>
<path d="M26.9062 21.3542C26.199 21.3542 25.625 20.7802 25.625 20.0729C25.625 17.4814 23.5186 15.375 20.9271 15.375C20.2198 15.375 19.6458 14.801 19.6458 14.0938C19.6458 13.3865 20.2198 12.8125 20.9271 12.8125C24.9297 12.8125 28.1875 16.0703 28.1875 20.0729C28.1875 20.7802 27.6135 21.3542 26.9062 21.3542Z" fill="black"/>
<path d="M22.6354 41H18.3646C16.9245 41 15.375 39.9067 15.375 37.5082V34.4947C15.375 32.6821 14.6029 31.0182 13.3097 30.0445C9.57694 27.2343 7.84982 22.6115 8.80136 17.9802C9.7324 13.4429 13.4036 9.758 17.9358 8.80988C21.5387 8.05308 25.227 8.92946 28.0389 11.2152C30.8474 13.4975 32.4584 16.8818 32.4584 20.5C32.4584 24.1866 30.7927 27.6084 27.8886 29.8924C26.4502 31.0233 25.625 32.5984 25.625 34.2128V38.0104C25.625 39.659 24.284 41 22.6354 41ZM20.4761 11.1076C19.8064 11.1076 19.1317 11.1776 18.4569 11.3177C14.9104 12.0591 12.0387 14.9428 11.3092 18.4944C10.5592 22.1451 11.9157 25.7873 14.8489 27.9962C16.781 29.4517 17.9358 31.8809 17.9358 34.4947V37.5082C17.9358 37.6636 17.9563 38.4375 18.3629 38.4375H22.6337C22.8695 38.4375 23.0608 38.2462 23.0608 38.0104V34.2128C23.0608 31.8058 24.243 29.4978 26.3032 27.8766C28.5873 26.0828 29.8959 23.3939 29.8959 20.5C29.8959 17.6573 28.6283 14.9975 26.4211 13.2037C24.7333 11.8336 22.6406 11.1076 20.4761 11.1076Z" fill="black"/>
</g>
<defs>
<clipPath id="clip0_350_71">
<rect width="41" height="41" fill="white"/>
</clipPath>
</defs>
</svg>
