<svg width="39" height="39" viewBox="0 0 39 39" fill="none" xmlns="http://www.w3.org/2000/svg">
<path d="M36.2976 23.1225L32.5668 16.6627C31.7242 15.2022 29.8502 14.6995 28.3883 15.5428C28.0106 15.7611 27.6905 16.052 27.442 16.3966C27.0336 16.1753 26.5814 16.045 26.1191 16.0134V4.57447C26.1191 2.38719 24.3397 0.607666 22.1523 0.607666H5.50288C3.31561 0.607666 1.53616 2.38712 1.53616 4.57447V32.4602C1.53616 34.6475 3.31561 36.427 5.50288 36.427H19.3028L20.6311 37.1938C22.0153 37.9927 23.5008 38.3923 24.9857 38.3922C26.4706 38.3922 27.955 37.9927 29.3371 37.1938L33.111 35.0153C35.1206 33.8561 36.5593 31.9783 37.1622 29.7279C37.765 27.4777 37.4581 25.1319 36.2976 23.1225ZM5.50288 2.89282H22.1523C23.0796 2.89282 23.834 3.64715 23.834 4.57447V16.7612C23.5307 17.0158 23.282 17.3184 23.0959 17.6526C22.9896 17.6117 22.8804 17.5762 22.7688 17.5463C21.9359 17.3229 21.0685 17.4365 20.3272 17.8653C20.0461 18.0274 19.7987 18.2258 19.5874 18.4512L17.4065 14.6728C16.5184 13.1379 14.546 12.6095 13.0081 13.496C11.4732 14.3841 10.9449 16.3565 11.8309 17.8935L17.2975 27.3606L17.2137 27.3122C16.1992 26.7261 15.0275 26.568 13.9145 26.8665C12.8285 27.1578 11.9029 27.8479 11.2868 28.8194H3.82131V4.57447C3.82131 3.64723 4.57564 2.89282 5.50288 2.89282ZM5.50288 34.1419C4.57564 34.1419 3.82131 33.3875 3.82131 32.4602V31.1047H11.0506C11.2444 31.5669 11.5844 31.9717 12.0505 32.2407L15.3441 34.1419H5.50288V34.1419ZM34.9548 29.1366C34.51 30.7971 33.4496 32.1819 31.9689 33.0361L28.194 35.2151C26.1555 36.3935 23.8154 36.3933 21.7735 35.2147L13.1929 30.2616C13.1516 30.2378 13.1364 30.1771 13.1604 30.1352C13.4682 29.601 13.9462 29.2241 14.5066 29.0737C14.6536 29.0343 14.8321 29.0038 15.0331 29.0038C15.3384 29.0038 15.6953 29.0742 16.0705 29.291L19.849 31.474C20.2968 31.7326 20.8626 31.6582 21.2284 31.2927C21.5942 30.927 21.6687 30.3612 21.4101 29.9133L13.8102 16.7516C13.553 16.3052 13.7065 15.7321 14.151 15.475C14.5971 15.2177 15.1705 15.3711 15.428 15.8163L21.532 26.3897C21.7436 26.7564 22.1277 26.9614 22.5227 26.9614C22.7164 26.9614 22.9128 26.9121 23.0926 26.8083C23.6392 26.4928 23.8266 25.7941 23.5112 25.2476C23.5112 25.2476 21.1538 21.165 21.1277 21.1197C21.1276 21.1195 21.1274 21.1193 21.1273 21.1191L21.1271 21.1187C21.0041 20.9047 20.972 20.6534 21.0368 20.4113C21.1017 20.1692 21.2549 19.9682 21.4701 19.8442C21.6835 19.7206 21.9348 19.6885 22.1767 19.7534C22.4195 19.8185 22.6218 19.9727 22.7446 20.185L25.1292 24.3149C25.3408 24.6815 25.7248 24.8864 26.1198 24.8864C26.3136 24.8864 26.5101 24.837 26.6899 24.7331C27.2365 24.4176 27.4238 23.7189 27.1083 23.1724L25.0915 19.6788C25.0896 19.6755 25.0874 19.6726 25.0855 19.6694C24.8445 19.2264 24.9987 18.6683 25.4385 18.4148C25.8836 18.1574 26.4559 18.3112 26.7145 18.7581L27.2715 19.721C27.2715 19.721 27.2717 19.7214 27.2718 19.7215L28.7241 22.2377C28.9357 22.6043 29.3198 22.8093 29.7147 22.8093C29.9085 22.8093 30.105 22.7599 30.2848 22.6561C30.8313 22.3406 31.0187 21.6418 30.7032 21.0953L29.249 18.5758C29.1475 18.3997 29.1211 18.1921 29.1748 17.9914C29.2286 17.7901 29.3554 17.6232 29.531 17.5216C29.9004 17.3085 30.3743 17.4355 30.5876 17.8051L34.3186 24.2654C35.1737 25.746 35.3995 27.476 34.9547 29.1365L34.9548 29.1366ZM12.6365 5.34525C12.6365 4.71424 13.148 4.20267 13.779 4.20267H13.8784C14.5094 4.20267 15.0209 4.71424 15.0209 5.34525C15.0209 5.97626 14.5094 6.48783 13.8784 6.48783H13.779C13.148 6.48783 12.6365 5.97626 12.6365 5.34525Z" fill="#036893"/>
</svg>
