<svg width="37" height="39" viewBox="0 0 37 39" fill="none" xmlns="http://www.w3.org/2000/svg">
<path d="M22.8947 0H8.17004C5.77921 0 3.83411 2.05024 3.83411 4.57031V34.4297C3.83411 36.9498 5.77921 39 8.17004 39H28.83C31.2208 39 33.1659 36.9498 33.1659 34.4297V10.8817L22.8947 0ZM23.6991 5.17215L28.2438 9.98705H25.1444C24.3474 9.98705 23.6991 9.30363 23.6991 8.46361V5.17215ZM28.8299 35.9531H8.17004C7.3731 35.9531 6.72473 35.2697 6.72473 34.4297V4.57031C6.72473 3.73029 7.3731 3.04688 8.17004 3.04688H20.8165V8.46353C20.8165 10.9836 22.7536 13.0254 25.1444 13.0254H30.2833V34.4297C30.2833 35.2697 29.6269 35.9531 28.8299 35.9531ZM14.8185 17.2148H20.5997V30.9258H17.7091V20.2617H14.8185V17.2148Z" fill="#036893"/>
</svg>
