<svg width="36" height="36" viewBox="0 0 36 36" fill="none" xmlns="http://www.w3.org/2000/svg">
<path d="M19.2825 33.9356C21.4371 33.9496 23.5804 33.623 25.6331 32.9681C25.9008 33.5374 26.3247 34.019 26.8555 34.3566C27.3863 34.6942 28.0022 34.874 28.6313 34.875H30.4312C31.311 34.8735 32.1543 34.5234 32.7763 33.9013C33.3984 33.2792 33.7485 32.436 33.75 31.5562V24.1312C33.7485 23.2515 33.3984 22.4082 32.7763 21.7862C32.1543 21.1641 31.311 20.814 30.4312 20.8125H28.6313C27.8756 20.8137 27.1429 21.0724 26.554 21.5458C25.965 22.0192 25.5549 22.6792 25.3912 23.4169C24.7405 23.1689 24.15 22.7855 23.6588 22.2919L20.8912 19.5244C20.2419 18.6708 19.2855 18.1038 18.225 17.9437C17.7889 17.9189 17.3527 17.9913 16.948 18.1557C16.5433 18.3201 16.1802 18.5724 15.885 18.8944C14.4788 20.3006 15.1763 22.2694 15.7444 23.1244L15.7781 23.175L16.7963 24.5306C15.9926 24.8891 15.1356 25.1134 14.2594 25.1944C12.7411 24.6023 11.3979 23.6346 10.3556 22.3819C10.2375 22.2131 9.17438 20.7225 7.65 20.4862C7.2795 20.4288 6.9011 20.4491 6.5389 20.546C6.1767 20.6428 5.83864 20.814 5.54625 21.0487C4.93574 21.5033 4.51659 22.1692 4.37063 22.9162C4.08151 22.8743 3.78786 22.8743 3.49875 22.9162C3.12942 22.981 2.77762 23.122 2.46578 23.3302C2.15393 23.5384 1.88888 23.8093 1.6875 24.1256C1.44888 24.4651 1.28236 24.8499 1.19819 25.2562C1.11402 25.6625 1.114 26.0818 1.19813 26.4881C1.50877 27.555 2.19903 28.4713 3.13875 29.0644C5.49677 30.4993 8.01775 31.6474 10.6481 32.4844C13.4333 33.4142 16.3464 33.9038 19.2825 33.9356ZM27.5625 24.1312C27.5625 23.8478 27.6751 23.5759 27.8755 23.3755C28.076 23.1751 28.3478 23.0625 28.6313 23.0625H30.4312C30.7147 23.0625 30.9865 23.1751 31.187 23.3755C31.3874 23.5759 31.5 23.8478 31.5 24.1312V31.5562C31.5 31.8397 31.3874 32.1115 31.187 32.312C30.9865 32.5124 30.7147 32.625 30.4312 32.625H28.6313C28.3478 32.625 28.076 32.5124 27.8755 32.312C27.6751 32.1115 27.5625 31.8397 27.5625 31.5562V24.1312ZM6.91875 22.8206C6.96818 22.7729 7.02775 22.737 7.09301 22.7156C7.15828 22.6941 7.22754 22.6877 7.29563 22.6969C7.78448 22.872 8.20569 23.1967 8.49938 23.625C8.89506 24.1549 9.34987 24.6381 9.855 25.065C8.72146 24.864 7.63806 24.4437 6.66563 23.8275L6.60375 23.7825C6.54229 23.6099 6.53987 23.4218 6.59689 23.2477C6.6539 23.0736 6.76711 22.9234 6.91875 22.8206ZM3.375 26.0156C3.35366 25.9033 3.3572 25.7877 3.38539 25.6769C3.41357 25.5661 3.46571 25.4628 3.53813 25.3744C3.56954 25.3122 3.61477 25.2581 3.67035 25.2162C3.72593 25.1743 3.79038 25.1456 3.85875 25.1325C4.38337 25.147 4.88974 25.3282 5.30438 25.65C5.41125 25.7287 7.90312 27.5625 12.1669 27.5625C17.595 27.5625 19.0575 25.7287 19.2994 25.3631C19.4248 25.1697 19.4877 24.9424 19.4796 24.712C19.4716 24.4816 19.393 24.2592 19.2544 24.075L17.5669 21.8587C17.4937 21.735 17.0044 20.8969 17.4375 20.4806C17.7525 20.1656 17.9494 20.1769 18 20.1825C18.4392 20.2953 18.8264 20.5554 19.0969 20.9194C19.1297 20.9612 19.1654 21.0007 19.2037 21.0375L22.0162 23.85C22.9143 24.78 24.057 25.4371 25.3125 25.7456V30.6956C15.4294 34.1944 4.46063 27.2531 4.33688 27.1687C3.90098 26.8973 3.5638 26.4931 3.375 26.0156Z" fill="#036893"/>
<path d="M5.625 12.9375H6.75V13.5C6.75 14.0967 6.98705 14.669 7.40901 15.091C7.83097 15.5129 8.40326 15.75 9 15.75H14.625C14.9234 15.75 15.2095 15.6315 15.4205 15.4205C15.6315 15.2095 15.75 14.9234 15.75 14.625V12.375C15.75 12.2258 15.8093 12.0827 15.9148 11.9773C16.0202 11.8718 16.1633 11.8125 16.3125 11.8125C16.4617 11.8125 16.6048 11.8718 16.7102 11.9773C16.8157 12.0827 16.875 12.2258 16.875 12.375V14.625C16.875 14.9234 16.9935 15.2095 17.2045 15.4205C17.4155 15.6315 17.7016 15.75 18 15.75H20.25C20.8467 15.75 21.419 15.5129 21.841 15.091C22.2629 14.669 22.5 14.0967 22.5 13.5V9.5625H23.625C24.3709 9.5625 25.0863 9.26618 25.6137 8.73874C26.1412 8.21129 26.4375 7.49592 26.4375 6.75C26.4375 6.00408 26.1412 5.28871 25.6137 4.76126C25.0863 4.23382 24.3709 3.9375 23.625 3.9375H22.5V3.375C22.5 2.77826 22.2629 2.20597 21.841 1.78401C21.419 1.36205 20.8467 1.125 20.25 1.125H14.625C14.3266 1.125 14.0405 1.24353 13.8295 1.4545C13.6185 1.66548 13.5 1.95163 13.5 2.25V4.5C13.5 4.64918 13.4407 4.79226 13.3352 4.89775C13.2298 5.00324 13.0867 5.0625 12.9375 5.0625C12.7883 5.0625 12.6452 5.00324 12.5398 4.89775C12.4343 4.79226 12.375 4.64918 12.375 4.5V2.25C12.375 1.95163 12.2565 1.66548 12.0455 1.4545C11.8345 1.24353 11.5484 1.125 11.25 1.125H9C8.40326 1.125 7.83097 1.36205 7.40901 1.78401C6.98705 2.20597 6.75 2.77826 6.75 3.375V7.3125H5.625C4.87908 7.3125 4.16371 7.60882 3.63626 8.13626C3.10882 8.66371 2.8125 9.37908 2.8125 10.125C2.8125 10.8709 3.10882 11.5863 3.63626 12.1137C4.16371 12.6412 4.87908 12.9375 5.625 12.9375ZM5.625 9.5625H7.875C8.17337 9.5625 8.45952 9.44397 8.6705 9.233C8.88147 9.02202 9 8.73587 9 8.4375V3.375H10.125V4.5C10.125 5.24592 10.4213 5.96129 10.9488 6.48874C11.4762 7.01618 12.1916 7.3125 12.9375 7.3125C13.6834 7.3125 14.3988 7.01618 14.9262 6.48874C15.4537 5.96129 15.75 5.24592 15.75 4.5V3.375H20.25V5.0625C20.25 5.36087 20.3685 5.64702 20.5795 5.858C20.7905 6.06897 21.0766 6.1875 21.375 6.1875H23.625C23.7742 6.1875 23.9173 6.24676 24.0227 6.35225C24.1282 6.45774 24.1875 6.60082 24.1875 6.75C24.1875 6.89918 24.1282 7.04226 24.0227 7.14775C23.9173 7.25324 23.7742 7.3125 23.625 7.3125H21.375C21.0766 7.3125 20.7905 7.43103 20.5795 7.642C20.3685 7.85298 20.25 8.13913 20.25 8.4375V13.5H19.125V12.375C19.125 11.6291 18.8287 10.9137 18.3012 10.3863C17.7738 9.85882 17.0584 9.5625 16.3125 9.5625C15.5666 9.5625 14.8512 9.85882 14.3238 10.3863C13.7963 10.9137 13.5 11.6291 13.5 12.375V13.5H9V11.8125C9 11.5141 8.88147 11.228 8.6705 11.017C8.45952 10.806 8.17337 10.6875 7.875 10.6875H5.625C5.47582 10.6875 5.33274 10.6282 5.22725 10.5227C5.12176 10.4173 5.0625 10.2742 5.0625 10.125C5.0625 9.97582 5.12176 9.83274 5.22725 9.72725C5.33274 9.62176 5.47582 9.5625 5.625 9.5625Z" fill="#036893"/>
</svg>
