<svg width="37" height="37" viewBox="0 0 37 37" fill="none" xmlns="http://www.w3.org/2000/svg">
<path d="M35.8438 32.375H30.0625C29.7558 32.375 29.4617 32.2532 29.2449 32.0363C29.0281 31.8195 28.9062 31.5254 28.9062 31.2188C28.9062 30.9121 29.0281 30.618 29.2449 30.4012C29.4617 30.1843 29.7558 30.0625 30.0625 30.0625H34.6875V4.625H2.3125V30.0625H6.9375C7.24416 30.0625 7.53825 30.1843 7.75509 30.4012C7.97193 30.618 8.09375 30.9121 8.09375 31.2188C8.09375 31.5254 7.97193 31.8195 7.75509 32.0363C7.53825 32.2532 7.24416 32.375 6.9375 32.375H1.15625C0.849593 32.375 0.555497 32.2532 0.338658 32.0363C0.121819 31.8195 0 31.5254 0 31.2188V3.46875C0 3.16209 0.121819 2.868 0.338658 2.65116C0.555497 2.43432 0.849593 2.3125 1.15625 2.3125H35.8438C36.1504 2.3125 36.4445 2.43432 36.6613 2.65116C36.8782 2.868 37 3.16209 37 3.46875V31.2188C37 31.5254 36.8782 31.8195 36.6613 32.0363C36.4445 32.2532 36.1504 32.375 35.8438 32.375Z" fill="black"/>
<path d="M32.375 11.5625H1.15625C0.849593 11.5625 0.555497 11.4407 0.338658 11.2238C0.121819 11.007 0 10.7129 0 10.4062C0 10.0996 0.121819 9.8055 0.338658 9.58866C0.555497 9.37182 0.849593 9.25 1.15625 9.25H32.375C32.6817 9.25 32.9758 9.37182 33.1926 9.58866C33.4094 9.8055 33.5312 10.0996 33.5312 10.4062C33.5312 10.7129 33.4094 11.007 33.1926 11.2238C32.9758 11.4407 32.6817 11.5625 32.375 11.5625Z" fill="black"/>
<path d="M24.2812 8.09375H5.78125C5.47459 8.09375 5.1805 7.97193 4.96366 7.75509C4.74682 7.53825 4.625 7.24416 4.625 6.9375C4.625 6.63084 4.74682 6.33675 4.96366 6.11991C5.1805 5.90307 5.47459 5.78125 5.78125 5.78125H24.2812C24.5879 5.78125 24.882 5.90307 25.0988 6.11991C25.3157 6.33675 25.4375 6.63084 25.4375 6.9375C25.4375 7.24416 25.3157 7.53825 25.0988 7.75509C24.882 7.97193 24.5879 8.09375 24.2812 8.09375Z" fill="black"/>
<path d="M31.2188 8.09375H27.75C27.4433 8.09375 27.1492 7.97193 26.9324 7.75509C26.7156 7.53825 26.5938 7.24416 26.5938 6.9375C26.5938 6.63084 26.7156 6.33675 26.9324 6.11991C27.1492 5.90307 27.4433 5.78125 27.75 5.78125H31.2188C31.5254 5.78125 31.8195 5.90307 32.0363 6.11991C32.2532 6.33675 32.375 6.63084 32.375 6.9375C32.375 7.24416 32.2532 7.53825 32.0363 7.75509C31.8195 7.97193 31.5254 8.09375 31.2188 8.09375Z" fill="black"/>
<path d="M20.8125 34.6875H16.1875C15.8808 34.6875 15.5867 34.5657 15.3699 34.3488C15.1531 34.132 15.0312 33.8379 15.0312 33.5312V31.5876C14.7064 31.4349 14.3923 31.2603 14.0912 31.065L12.1776 32.2108C12.0446 32.2905 11.897 32.3426 11.7435 32.3641C11.59 32.3855 11.4338 32.3759 11.284 32.3358C11.1343 32.2957 10.9942 32.2258 10.872 32.1305C10.7498 32.0351 10.648 31.9162 10.5727 31.7807L8.23942 27.5881C8.09346 27.3257 8.05529 27.0169 8.13297 26.7269C8.21066 26.4368 8.39811 26.1884 8.65567 26.0341L10.4363 24.9681C10.4163 24.7414 10.4062 24.5125 10.4062 24.2812C10.4062 24.05 10.4163 23.8211 10.4363 23.5944L8.65567 22.5284C8.39811 22.3741 8.21066 22.1257 8.13297 21.8356C8.05529 21.5456 8.09346 21.2368 8.23942 20.9744L10.5727 16.7818C10.648 16.6463 10.7498 16.5274 10.872 16.432C10.9942 16.3367 11.1343 16.2668 11.284 16.2267C11.4338 16.1866 11.59 16.177 11.7435 16.1984C11.897 16.2199 12.0446 16.272 12.1776 16.3517L14.0912 17.4975C14.3923 17.3022 14.7064 17.1276 15.0312 16.9749V15.0312C15.0312 14.7246 15.1531 14.4305 15.3699 14.2137C15.5867 13.9968 15.8808 13.875 16.1875 13.875H20.8125C21.1191 13.875 21.4132 13.9968 21.6301 14.2137C21.8469 14.4305 21.9687 14.7246 21.9687 15.0312V16.9749C22.2936 17.1276 22.6076 17.3022 22.9088 17.4975L24.8224 16.3517C24.9553 16.272 25.1029 16.2199 25.2565 16.1984C25.41 16.177 25.5662 16.1866 25.7159 16.2267C25.8656 16.2668 26.0058 16.3367 26.128 16.432C26.2502 16.5274 26.3519 16.6463 26.4272 16.7818L28.7605 20.9744C28.9065 21.2368 28.9447 21.5456 28.867 21.8356C28.7893 22.1257 28.6019 22.3741 28.3443 22.5284L26.5637 23.5944C26.5837 23.8211 26.5937 24.05 26.5937 24.2812C26.5937 24.5125 26.5837 24.7414 26.5637 24.9681L28.3443 26.0341C28.6019 26.1884 28.7893 26.4368 28.867 26.7269C28.9447 27.0169 28.9065 27.3257 28.7605 27.5881L26.4272 31.7807C26.3519 31.9162 26.2502 32.0351 26.128 32.1305C26.0058 32.2258 25.8656 32.2957 25.7159 32.3358C25.5662 32.3759 25.41 32.3855 25.2565 32.3641C25.1029 32.3426 24.9553 32.2905 24.8224 32.2108L22.9088 31.065C22.6076 31.2603 22.2936 31.4349 21.9687 31.5876V33.5312C21.9687 33.8379 21.8469 34.132 21.6301 34.3488C21.4132 34.5657 21.1191 34.6875 20.8125 34.6875ZM17.3437 32.375H19.6562V30.8152C19.6564 30.5764 19.7305 30.3434 19.8684 30.1484C20.0063 29.9534 20.2012 29.8058 20.4263 29.726C21.0412 29.5095 21.6151 29.1905 22.1237 28.7825C22.3078 28.6338 22.5332 28.5452 22.7693 28.5286C23.0055 28.5121 23.241 28.5684 23.4441 28.69L24.9865 29.615L26.1948 27.4447L24.7195 26.5625C24.5168 26.4411 24.3562 26.2606 24.2593 26.0452C24.1623 25.8298 24.1337 25.5899 24.1772 25.3577C24.3159 24.6483 24.3159 23.9188 24.1772 23.2094C24.1337 22.9772 24.1623 22.7373 24.2593 22.5219C24.3562 22.3065 24.5168 22.126 24.7195 22.0046L26.1948 21.1224L24.9865 18.9498L23.4441 19.8748C23.2409 19.9962 23.0053 20.0524 22.7692 20.0356C22.533 20.0189 22.3077 19.93 22.1237 19.7811C21.6151 19.3732 21.0412 19.0542 20.4263 18.8376C20.201 18.7578 20.0059 18.6101 19.868 18.4148C19.7301 18.2195 19.6561 17.9863 19.6562 17.7473V16.1875H17.3437V17.7473C17.3436 17.9861 17.2695 18.2191 17.1316 18.4141C16.9937 18.6091 16.7988 18.7567 16.5737 18.8365C15.9585 19.0524 15.3845 19.3715 14.8763 19.78C14.6918 19.928 14.4666 20.0162 14.2307 20.0329C13.9948 20.0497 13.7594 19.9941 13.5559 19.8736L12.0134 18.9486L10.8051 21.1201L12.2805 22.0023C12.4832 22.1237 12.6437 22.3042 12.7407 22.5196C12.8376 22.735 12.8663 22.9749 12.8228 23.2071C12.6841 23.9165 12.6841 24.646 12.8228 25.3554C12.8663 25.5876 12.8376 25.8275 12.7407 26.0429C12.6437 26.2583 12.4832 26.4388 12.2805 26.5602L10.8051 27.4424L12.0134 29.6127L13.5559 28.6877C13.759 28.5661 13.9945 28.5098 14.2306 28.5263C14.4668 28.5429 14.6921 28.6315 14.8763 28.7802C15.3845 29.1887 15.9585 29.5077 16.5737 29.7237C16.7988 29.8035 16.9937 29.951 17.1316 30.1461C17.2695 30.3411 17.3436 30.5741 17.3437 30.8129V32.375Z" fill="black"/>
<path d="M18.5 27.75C17.8139 27.75 17.1433 27.5466 16.5729 27.1654C16.0024 26.7843 15.5578 26.2425 15.2953 25.6087C15.0328 24.9749 14.9641 24.2774 15.0979 23.6045C15.2317 22.9317 15.5621 22.3136 16.0472 21.8285C16.5323 21.3434 17.1504 21.013 17.8233 20.8792C18.4962 20.7453 19.1936 20.814 19.8274 21.0765C20.4613 21.3391 21.003 21.7837 21.3842 22.3541C21.7653 22.9246 21.9688 23.5952 21.9688 24.2813C21.9688 24.5879 21.8469 24.882 21.6301 25.0988C21.4133 25.3157 21.1192 25.4375 20.8125 25.4375C20.5058 25.4375 20.2117 25.3157 19.9949 25.0988C19.7781 24.882 19.6563 24.5879 19.6563 24.2813C19.6563 24.0526 19.5884 23.829 19.4614 23.6389C19.3343 23.4487 19.1538 23.3005 18.9425 23.213C18.7312 23.1255 18.4987 23.1026 18.2744 23.1472C18.0501 23.1918 17.8441 23.302 17.6824 23.4637C17.5207 23.6254 17.4106 23.8314 17.366 24.0557C17.3214 24.28 17.3443 24.5125 17.4318 24.7237C17.5193 24.935 17.6675 25.1156 17.8576 25.2426C18.0478 25.3697 18.2713 25.4375 18.5 25.4375C18.8067 25.4375 19.1008 25.5593 19.3176 25.7762C19.5344 25.993 19.6563 26.2871 19.6563 26.5938C19.6563 26.9004 19.5344 27.1945 19.3176 27.4113C19.1008 27.6282 18.8067 27.75 18.5 27.75Z" fill="black"/>
</svg>
