<svg width="34" height="34" viewBox="0 0 34 34" fill="none" xmlns="http://www.w3.org/2000/svg">
<path d="M14.8479 7.73975H6.45947C5.79913 7.73975 5.26416 7.20478 5.26416 6.54443C5.26416 5.88409 5.79913 5.34912 6.45947 5.34912H14.8479C15.5083 5.34912 16.0432 5.88409 16.0432 6.54443C16.0432 7.20478 15.5077 7.73975 14.8479 7.73975Z" fill="black"/>
<path d="M20.1339 5.28052C19.4358 5.28052 18.87 5.8463 18.87 6.54436C18.87 7.24242 19.4358 7.80821 20.1339 7.80821C20.8319 7.80821 21.3977 7.24242 21.3977 6.54436C21.3982 5.8463 20.8319 5.28052 20.1339 5.28052Z" fill="black"/>
<path d="M23.8032 5.28052C23.1051 5.28052 22.5394 5.8463 22.5394 6.54436C22.5394 7.24242 23.1051 7.80821 23.8032 7.80821C24.5013 7.80821 25.067 7.24242 25.067 6.54436C25.067 5.8463 24.5013 5.28052 23.8032 5.28052Z" fill="black"/>
<path d="M27.472 5.28052C26.7739 5.28052 26.2082 5.8463 26.2082 6.54436C26.2082 7.24242 26.7739 7.80821 27.472 7.80821C28.1701 7.80821 28.7358 7.24242 28.7358 6.54436C28.7358 5.8463 28.1701 5.28052 27.472 5.28052Z" fill="black"/>
<path d="M30.2855 0.999756H3.71451C1.87585 0.999756 0.379318 2.49576 0.379318 4.33494V28.1913C0.379318 30.0304 1.87532 31.5264 3.71451 31.5264H8.84744C8.12122 30.737 7.51029 29.8445 7.03535 28.8702H3.71451C3.33997 28.8702 3.03557 28.5658 3.03557 28.1913V12.0891H30.9644V28.1913C30.9644 28.5658 30.66 28.8702 30.2855 28.8702H26.9652C26.4903 29.8445 25.8793 30.737 25.1531 31.5264H30.2855C32.1247 31.5264 33.6207 30.0304 33.6207 28.1913V4.33547C33.6207 2.49629 32.1242 0.999756 30.2855 0.999756ZM30.9644 9.43335H3.03557V4.33547C3.03557 3.96094 3.33997 3.65654 3.71451 3.65654H30.2855C30.66 3.65654 30.9644 3.96094 30.9644 4.33547V9.43335Z" fill="black"/>
<path d="M17.0005 15.0693C12.0567 15.0693 8.03516 19.0914 8.03516 24.0342C8.03516 28.978 12.0572 32.9996 17.0005 32.9996C21.9438 32.9996 25.9654 28.9775 25.9654 24.0342C25.9654 19.0914 21.9433 15.0693 17.0005 15.0693ZM17.0005 30.5956C13.3822 30.5956 10.4391 27.6525 10.4391 24.0342C10.4391 20.4164 13.3822 17.4732 17.0005 17.4732C20.6183 17.4732 23.5615 20.4164 23.5615 24.0342C23.5609 27.6525 20.6178 30.5956 17.0005 30.5956Z" fill="black"/>
<path d="M20 20.647C19.6419 20.647 19.2833 20.7787 19.0203 21.0422L15.9603 24.1022L14.9584 23.1003C14.4394 22.5823 13.532 22.5834 13.0146 23.1003C12.4822 23.6321 12.4849 24.5129 13.0146 25.0441L14.9972 27.0257C15.2559 27.2855 15.6017 27.4284 15.9688 27.4284C16.3492 27.4284 16.703 27.2844 16.9633 27.022C16.9633 27.022 20.9679 23.0169 20.9807 23.0041C21.5146 22.4702 21.5135 21.574 20.9807 21.0428C20.7172 20.7787 20.3586 20.647 20 20.647Z" fill="black"/>
</svg>
