<svg width="39" height="39" viewBox="0 0 39 39" fill="none" xmlns="http://www.w3.org/2000/svg">
<path d="M35.5723 9.2168H33.2109C33.2109 6.69673 31.1607 4.64648 28.6406 4.64648C26.1206 4.64648 24.0703 6.69673 24.0703 9.2168H12.9143C11.9289 9.2168 11.4054 10.3866 12.0629 11.1213C12.438 11.5404 12.6445 12.0814 12.6445 12.6445C12.6445 13.9046 11.6194 14.9297 10.3594 14.9297C9.09934 14.9297 8.07422 13.9046 8.07422 12.6445C8.07422 12.0814 8.2808 11.5404 8.65587 11.1213C9.313 10.387 8.79031 9.2168 7.80442 9.2168H3.42773C1.53768 9.2168 0 10.7545 0 12.6445V26.3555C0 28.2455 1.53768 29.7832 3.42773 29.7832H5.78906C5.78906 32.3033 7.8393 34.3535 10.3594 34.3535C12.8794 34.3535 14.9297 32.3033 14.9297 29.7832H35.5723C37.4623 29.7832 39 28.2455 39 26.3555V12.6445C39 10.7545 37.4623 9.2168 35.5723 9.2168ZM18.3574 22.7593V27.498H13.592C12.8039 27.498 12.2523 28.279 12.5147 29.0214C12.6008 29.265 12.6445 29.5213 12.6445 29.7832C12.6445 31.0432 11.6193 32.0684 10.3593 32.0684C9.09926 32.0684 8.07414 31.0432 8.07414 29.7832C8.07414 29.5213 8.11779 29.2649 8.20386 29.0214C8.46658 28.2783 7.91395 27.498 7.12656 27.498H3.42773C2.79772 27.498 2.28516 26.9855 2.28516 26.3555V12.6445C2.28516 12.0145 2.79772 11.502 3.42773 11.502H5.93371C5.83827 11.8721 5.78906 12.2557 5.78906 12.6445C5.78906 15.1646 7.8393 17.2148 10.3594 17.2148C12.8794 17.2148 14.9297 15.1646 14.9297 12.6445C14.9297 12.2557 14.8805 11.8721 14.785 11.502H18.3574V16.2673C18.3574 17.0541 19.1368 17.6073 19.8808 17.3446C20.1243 17.2586 20.3806 17.2149 20.6426 17.2149C21.9026 17.2149 22.9277 18.24 22.9277 19.5001C22.9277 20.7601 21.9026 21.7852 20.6426 21.7852C20.3879 21.7852 20.1386 21.7439 19.9012 21.6626C19.1434 21.3782 18.3385 21.9527 18.3574 22.7593ZM36.7148 26.3555C36.7148 26.9855 36.2023 27.498 35.5723 27.498H20.6426V24.0703C23.1626 24.0703 25.2129 22.0201 25.2129 19.5C25.2129 16.9799 23.1626 14.9297 20.6426 14.9297V11.502H25.408C26.1961 11.502 26.7477 10.721 26.4853 9.97859C26.3991 9.73507 26.3555 9.47868 26.3555 9.2168C26.3555 7.95676 27.3806 6.93164 28.6406 6.93164C29.9007 6.93164 30.9258 7.95676 30.9258 9.2168C30.9258 9.47868 30.8821 9.73507 30.7961 9.97859C30.5333 10.7217 31.086 11.502 31.8734 11.502H35.5723C36.2023 11.502 36.7148 12.0145 36.7148 12.6445V26.3555Z" fill="#036893"/>
</svg>
