<svg width="42" height="42" viewBox="0 0 42 42" fill="none" xmlns="http://www.w3.org/2000/svg">
<path d="M35.4375 5.25H11.8125C10.7686 5.25114 9.7677 5.66635 9.02953 6.40453C8.29135 7.1427 7.87614 8.14356 7.875 9.1875V15.75H6.5625C5.51856 15.7511 4.5177 16.1663 3.77953 16.9045C3.04135 17.6427 2.62614 18.6436 2.625 19.6875V34.125C2.62614 35.1689 3.04135 36.1698 3.77953 36.908C4.5177 37.6462 5.51856 38.0614 6.5625 38.0625H13.125C14.1689 38.0614 15.1698 37.6462 15.908 36.908C16.6462 36.1698 17.0614 35.1689 17.0625 34.125V31.5H19.6875V35.4375C19.3394 35.4375 19.0056 35.5758 18.7594 35.8219C18.5133 36.0681 18.375 36.4019 18.375 36.75C18.375 37.0981 18.5133 37.4319 18.7594 37.6781C19.0056 37.9242 19.3394 38.0625 19.6875 38.0625H27.5625C27.9106 38.0625 28.2444 37.9242 28.4906 37.6781C28.7367 37.4319 28.875 37.0981 28.875 36.75C28.875 36.4019 28.7367 36.0681 28.4906 35.8219C28.2444 35.5758 27.9106 35.4375 27.5625 35.4375V31.5H35.4375C36.4814 31.4989 37.4823 31.0837 38.2205 30.3455C38.9587 29.6073 39.3739 28.6064 39.375 27.5625V9.1875C39.3739 8.14356 38.9587 7.1427 38.2205 6.40453C37.4823 5.66635 36.4814 5.25114 35.4375 5.25ZM10.5 9.1875C10.5005 8.83954 10.6389 8.50596 10.8849 8.25992C11.131 8.01388 11.4645 7.87545 11.8125 7.875H35.4375C35.7855 7.87545 36.119 8.01388 36.3651 8.25992C36.6111 8.50596 36.7495 8.83954 36.75 9.1875V22.3125H17.0625V19.6875C17.0614 18.6436 16.6462 17.6427 15.908 16.9045C15.1698 16.1663 14.1689 15.7511 13.125 15.75H10.5V9.1875ZM14.4375 34.125C14.437 34.473 14.2986 34.8065 14.0526 35.0526C13.8065 35.2986 13.473 35.437 13.125 35.4375H6.5625C6.21454 35.437 5.88096 35.2986 5.63492 35.0526C5.38888 34.8065 5.25045 34.473 5.25 34.125V19.6875C5.25045 19.3395 5.38888 19.006 5.63492 18.7599C5.88096 18.5139 6.21454 18.3755 6.5625 18.375H13.125C13.473 18.3755 13.8065 18.5139 14.0526 18.7599C14.2986 19.006 14.437 19.3395 14.4375 19.6875V34.125ZM24.9375 35.4375H22.3125V31.5H24.9375V35.4375ZM35.4375 28.875H17.0625V24.9375H36.75V27.5625C36.7495 27.9105 36.6111 28.244 36.3651 28.4901C36.119 28.7361 35.7855 28.8745 35.4375 28.875Z" fill="#036893"/>
</svg>
