<svg width="41" height="41" viewBox="0 0 41 41" fill="none" xmlns="http://www.w3.org/2000/svg">
<g clip-path="url(#clip0_339_23)">
<path d="M34.1247 16.4847L24.5153 6.87537C23.8898 6.24988 22.8758 6.24988 22.2504 6.87537L12.641 16.4847C12.0155 17.1102 12.0155 18.1243 12.641 18.7497C13.2665 19.3752 14.2805 19.3752 14.9059 18.7497L15.375 18.2806V24.0235C15.375 24.908 16.092 25.625 16.9766 25.625H29.7891C30.6736 25.625 31.3906 24.908 31.3906 24.0235V18.2806L31.8597 18.7497C32.4852 19.3752 33.4993 19.3752 34.1247 18.7497C34.7502 18.1243 34.7502 17.1102 34.1247 16.4847ZM28.1875 22.4219H24.9844V20.8203C24.9844 19.9358 24.2674 19.2188 23.3828 19.2188C22.4983 19.2188 21.7813 19.9358 21.7813 20.8203V22.4219H18.5781V15.0775L23.3828 10.2728L28.1875 15.0775V22.4219Z" fill="#036893"/>
<path d="M23.3826 0C13.6454 0 5.7654 7.88001 5.7654 17.6172C5.7654 21.7849 7.20384 25.731 9.84418 28.8907L0.468874 38.266C-0.156617 38.8915 -0.156617 39.9055 0.468874 40.5309C1.09436 41.1564 2.10839 41.1564 2.7338 40.5309L12.1091 31.1556C15.2688 33.7959 19.2149 35.2344 23.3826 35.2344C33.1198 35.2344 40.9998 27.3544 40.9998 17.6172C40.9998 7.88001 33.1198 0 23.3826 0ZM23.3826 32.0312C15.4347 32.0312 8.96853 25.5651 8.96853 17.6172C8.96853 9.66927 15.4347 3.20312 23.3826 3.20312C31.3305 3.20312 37.7966 9.66927 37.7966 17.6172C37.7966 25.5651 31.3305 32.0312 23.3826 32.0312Z" fill="#036893"/>
</g>
<defs>
<clipPath id="clip0_339_23">
<rect width="41" height="41" fill="white"/>
</clipPath>
</defs>
</svg>
