<svg width="41" height="42" viewBox="0 0 41 42" fill="none" xmlns="http://www.w3.org/2000/svg">
<g clip-path="url(#clip0_339_8)">
<path d="M41 33.1139C41 28.2141 37.1086 24.2278 32.3255 24.2278C31.2414 24.2278 30.2034 24.4332 29.2458 24.8069L22.85 22.6994V20.9788C25.6263 19.4006 27.5097 16.3665 27.5097 12.8898V9.24484C27.5097 4.14717 23.4613 0 18.4851 0C13.5089 0 9.46043 4.14717 9.46043 9.24476V12.8897C9.46043 16.3657 11.3431 19.3992 14.1185 20.9779V22.6994L5.43418 25.5613C2.18381 26.6325 0 29.7021 0 33.1998V42H32.4573V41.9983C37.1799 41.9257 41 37.9685 41 33.1139ZM18.4851 2.46266C20.7192 2.46266 22.6969 3.60322 23.8964 5.34458C23.3209 6.9382 21.8402 8.01339 20.1416 8.01339H11.9758C12.543 4.85994 15.245 2.46266 18.4851 2.46266ZM11.8645 12.8897V10.476H20.1416C22.0783 10.476 23.8377 9.60135 25.0227 8.17564C25.0769 8.52411 25.1057 8.88095 25.1057 9.24476V12.8897C25.1057 16.6294 22.1357 19.6718 18.4851 19.6718C14.8345 19.6718 11.8645 16.6294 11.8645 12.8897ZM18.4851 22.1346C19.1583 22.1346 19.8144 22.058 20.4459 21.9142V24.0893C20.4459 25.1925 19.562 26.09 18.4756 26.09C17.3987 26.09 16.5225 25.1925 16.5225 24.0893V21.9137C17.1546 22.0579 17.8112 22.1346 18.4851 22.1346ZM9.19105 39.5373V34.7458H6.78702V39.5373H2.40403V33.1998C2.40403 30.7756 3.91758 28.648 6.17034 27.9056L14.2654 25.2379C14.7615 27.1441 16.4607 28.5526 18.4756 28.5526C20.4986 28.5526 22.2045 27.1439 22.7025 25.2377L26.5373 26.5013C24.7667 28.1293 23.6509 30.4904 23.6509 33.1138C23.6509 35.6372 24.683 37.9182 26.3375 39.5373H9.19105V39.5373ZM32.3255 39.5373C28.8678 39.5373 26.0549 36.6557 26.0549 33.1139C26.0549 29.5719 28.8679 26.6904 32.3255 26.6904C35.7831 26.6904 38.596 29.572 38.596 33.1139C38.596 36.6557 35.783 39.5373 32.3255 39.5373Z" fill="#036893"/>
<path d="M33.5274 29.5315H31.1234V31.8825H28.8284V34.3452H31.1234V36.6962H33.5274V34.3452H35.8225V31.8825H33.5274V29.5315Z" fill="#036893"/>
</g>
<defs>
<clipPath id="clip0_339_8">
<rect width="41" height="42" fill="white"/>
</clipPath>
</defs>
</svg>
