<svg width="45" height="45" viewBox="0 0 45 45" fill="none" xmlns="http://www.w3.org/2000/svg">
<path d="M31.6758 10.1827C31.4148 9.40161 30.8978 8.73149 30.2085 8.28089C29.5192 7.83029 28.6979 7.62559 27.8778 7.69996C27.0576 7.77433 26.2866 8.1234 25.6895 8.69064C25.0925 9.25788 24.7045 10.0101 24.5883 10.8254C21.8813 13.3847 15.3155 16.7049 5.98641 20.2219C4.44641 20.8002 3.15247 21.891 2.32214 23.3111C1.49181 24.7311 1.17573 26.3938 1.42704 28.0195C1.67835 29.6451 2.48172 31.1347 3.70209 32.2378C4.92246 33.3408 6.4854 33.99 8.12813 34.0763L10.3359 40.6407C10.6586 41.5469 11.3243 42.2901 12.1898 42.7101C13.0552 43.1301 14.051 43.1933 14.9626 42.886C15.8742 42.5787 16.6285 41.9255 17.063 41.0673C17.4976 40.2091 17.5775 39.2145 17.2856 38.2979L16.9256 37.2319V37.2235L15.8442 34.0144L15.3239 32.4675C22.5056 30.5621 27.9675 29.7099 31.0373 30.0333C31.5199 30.5125 32.1263 30.848 32.7886 31.0023C33.451 31.1565 34.1432 31.1234 34.7878 30.9066C35.7078 30.5954 36.4668 29.9322 36.8986 29.0623C37.3304 28.1924 37.3997 27.1869 37.0912 26.266L31.6758 10.1827ZM13.3284 30.0854L10.44 21.5157C15.8428 19.3458 21.7013 16.6472 25.2155 13.9796L29.6536 27.1575C25.2394 27.1491 18.9422 28.5469 13.3284 30.0854ZM4.38469 28.3219C4.02066 27.2521 4.08786 26.0826 4.572 25.0615C5.05615 24.0404 5.91914 23.2482 6.97781 22.853C7.25906 22.7504 7.54031 22.6407 7.82156 22.5338L10.62 30.8532C10.3303 30.9375 10.0392 31.0219 9.75656 31.1063C8.67489 31.4332 7.50835 31.3252 6.50511 30.8052C5.50187 30.2851 4.74112 29.3942 4.38469 28.3219ZM12.7463 33.6235C12.4662 33.7807 12.2493 34.0303 12.1327 34.3295C12.016 34.6288 12.0067 34.9592 12.1064 35.2646C12.2004 35.5437 12.3796 35.7863 12.6187 35.9581C12.8579 36.1299 13.145 36.2223 13.4395 36.2222C13.4977 36.2161 13.5554 36.2067 13.6125 36.1941L13.8277 36.8368C13.5474 36.9938 13.3304 37.2433 13.2137 37.5427C13.097 37.842 13.0878 38.1725 13.1878 38.4779C13.2818 38.757 13.461 38.9995 13.7002 39.1714C13.9393 39.3432 14.2264 39.4356 14.5209 39.4355C14.5631 39.4355 14.6067 39.4186 14.6489 39.4158C14.6621 39.6005 14.6142 39.7844 14.5125 39.9392C14.4109 40.0939 14.2611 40.211 14.0864 40.2722C13.8712 40.3441 13.6363 40.3278 13.4331 40.2268C13.2299 40.1259 13.0749 39.9485 13.0022 39.7336L10.9688 33.6839C11.5242 33.5208 12.0741 33.3605 12.6127 33.2072L12.7463 33.6235ZM34.38 27.803C34.3307 27.9039 34.2618 27.9939 34.1773 28.0678C34.0928 28.1417 33.9944 28.1979 33.8878 28.2333C33.6728 28.3045 33.4383 28.288 33.2354 28.1874C33.0324 28.0869 32.8773 27.9103 32.8036 27.6961L27.3909 11.6269C27.3199 11.4124 27.3365 11.1786 27.4371 10.9763C27.5378 10.774 27.7142 10.6197 27.9281 10.5469C28.0188 10.5168 28.1138 10.5016 28.2094 10.5019C28.3883 10.5022 28.5626 10.5585 28.7079 10.6629C28.8532 10.7673 28.9621 10.9146 29.0194 11.0841L34.4306 27.1561C34.4999 27.37 34.4817 27.6025 34.38 27.803ZM32.6925 7.08473C32.4289 6.82102 32.2808 6.46339 32.2808 6.09051C32.2808 5.71762 32.4289 5.36 32.6925 5.09629L35.505 2.28379C35.7702 2.02763 36.1254 1.88589 36.4942 1.88909C36.8629 1.8923 37.2156 2.04019 37.4763 2.30092C37.737 2.56165 37.8849 2.91435 37.8881 3.28307C37.8913 3.65178 37.7496 4.007 37.4934 4.27223L34.6809 7.08473C34.4172 7.34836 34.0596 7.49646 33.6867 7.49646C33.3138 7.49646 32.9562 7.34836 32.6925 7.08473ZM37.4611 13.1935L41.6798 11.7872C42.0342 11.6694 42.4208 11.6971 42.7546 11.8643C43.0885 12.0315 43.3423 12.3245 43.4602 12.6788C43.578 13.0331 43.5503 13.4197 43.3831 13.7536C43.2159 14.0875 42.9229 14.3412 42.5686 14.4591L38.3498 15.8654C37.9955 15.9832 37.6089 15.9555 37.275 15.7883C36.9412 15.6211 36.6874 15.3281 36.5695 14.9738C36.4517 14.6195 36.4794 14.2329 36.6466 13.899C36.8138 13.5651 37.1068 13.3113 37.4611 13.1935ZM43.6289 24.2916C43.5617 24.606 43.3889 24.8878 43.1391 25.0902C42.8894 25.2926 42.5779 25.4033 42.2564 25.4039C42.1567 25.404 42.0572 25.3937 41.9597 25.373L38.8842 24.7135C38.7036 24.6747 38.5324 24.6007 38.3804 24.4958C38.2284 24.3908 38.0985 24.257 37.9982 24.1018C37.8979 23.9467 37.8292 23.7733 37.7959 23.5916C37.7626 23.4099 37.7654 23.2235 37.8042 23.0429C37.843 22.8622 37.917 22.691 38.0219 22.539C38.1269 22.387 38.2607 22.2571 38.4159 22.1569C38.571 22.0566 38.7444 21.9878 38.9261 21.9545C39.1078 21.9212 39.2942 21.9241 39.4748 21.9629L42.5503 22.6224C42.9146 22.7009 43.2327 22.9209 43.435 23.2338C43.6372 23.5468 43.707 23.9272 43.6289 24.2916Z" fill="#036893"/>
</svg>
