<svg xmlns="http://www.w3.org/2000/svg" xmlns:xlink="http://www.w3.org/1999/xlink" width="62.569" height="14.431" viewBox="0 0 62.569 14.431">
  <defs>
    <clipPath id="clip-path">
      <rect id="Retângulo_150" data-name="Retângulo 150" width="62.569" height="14.431" fill="#cdcdcd"/>
    </clipPath>
  </defs>
  <g id="sacorp" transform="translate(0 0)">
    <g id="Grupo_53" data-name="Grupo 53" transform="translate(0 0)" clip-path="url(#clip-path)">
      <path id="Caminho_59" data-name="Caminho 59" d="M75.018,15.522H69.992a2.237,2.237,0,0,0-.682.1,1.991,1.991,0,0,0-.535.261,1.872,1.872,0,0,0-.4.376,2.11,2.11,0,0,0-.268.442,2.249,2.249,0,0,0-.151.465,2.2,2.2,0,0,0-.048.441v3.772a2.25,2.25,0,0,0,.1.684,1.96,1.96,0,0,0,.261.538,1.808,1.808,0,0,0,.377.4,2.2,2.2,0,0,0,.441.264,2.286,2.286,0,0,0,.466.151,2.23,2.23,0,0,0,.44.048h5.027a.127.127,0,0,0,.126-.126V21.939a.126.126,0,0,0-.126-.126H69.992a.389.389,0,0,1-.436-.436V17.614a.466.466,0,0,1,.108-.339.443.443,0,0,1,.329-.108h5.025a.127.127,0,0,0,.126-.126V15.648a.126.126,0,0,0-.126-.126" transform="translate(-39.955 -9.132)" fill="#cdcdcd"/>
      <path id="Caminho_60" data-name="Caminho 60" d="M94.824,16.2a3.231,3.231,0,0,0-1.056-.694,3.466,3.466,0,0,0-1.326-.251H90.556a3.5,3.5,0,0,0-1.328.251,3.142,3.142,0,0,0-1.759,1.754,3.491,3.491,0,0,0-.253,1.337v1.468a3.488,3.488,0,0,0,.253,1.339,3.232,3.232,0,0,0,.7,1.059,3.163,3.163,0,0,0,1.06.695,3.525,3.525,0,0,0,1.328.247h1.886a3.511,3.511,0,0,0,1.325-.247,3.133,3.133,0,0,0,1.754-1.754,3.516,3.516,0,0,0,.251-1.339V18.6a3.519,3.519,0,0,0-.251-1.336,3.154,3.154,0,0,0-.7-1.06m-.7,2.4v1.468a1.917,1.917,0,0,1-.123.7,1.5,1.5,0,0,1-.343.53,1.561,1.561,0,0,1-.535.342,1.9,1.9,0,0,1-.7.123H90.556a1.9,1.9,0,0,1-.7-.123,1.562,1.562,0,0,1-.535-.342,1.518,1.518,0,0,1-.343-.529,1.917,1.917,0,0,1-.123-.7V18.6a1.917,1.917,0,0,1,.123-.7,1.518,1.518,0,0,1,.343-.529,1.555,1.555,0,0,1,.535-.342,1.9,1.9,0,0,1,.7-.123h1.886a1.882,1.882,0,0,1,.69.123A1.488,1.488,0,0,1,94,17.9a1.917,1.917,0,0,1,.123.7" transform="translate(-51.314 -8.977)" fill="#cdcdcd"/>
      <path id="Caminho_61" data-name="Caminho 61" d="M116.276,20.925c.082-.01.17-.024.257-.041a2.809,2.809,0,0,0,.607-.2,2.934,2.934,0,0,0,.574-.35,2.346,2.346,0,0,0,.489-.517,2.538,2.538,0,0,0,.336-.7,2.973,2.973,0,0,0,.123-.89v-.89a2.066,2.066,0,0,0-.093-.588,1.786,1.786,0,0,0-.311-.592,1.734,1.734,0,0,0-.563-.457,1.809,1.809,0,0,0-.846-.184h-5.288a.845.845,0,0,0-.329.063.8.8,0,0,0-.265.178.844.844,0,0,0-.237.587v6.982a.127.127,0,0,0,.126.126h1.393a.127.127,0,0,0,.126-.126V17.166h4.471c.025,0,.051,0,.08,0a.087.087,0,0,1,.041.015.1.1,0,0,1,.03.041.307.307,0,0,1,.017.123v.879a1.16,1.16,0,0,1-.077.438.9.9,0,0,1-.214.318,1.08,1.08,0,0,1-.336.213,1.47,1.47,0,0,1-.432.1h-3.15a.127.127,0,0,0-.126.126v1.393a.127.127,0,0,0,.126.126h.955l2.868,2.482a.127.127,0,0,0,.082.031h2.154a.126.126,0,0,0,.126-.126.124.124,0,0,0-.044-.1Z" transform="translate(-65.149 -9.132)" fill="#cdcdcd"/>
      <path id="Caminho_62" data-name="Caminho 62" d="M140.6,17.657a2.783,2.783,0,0,0-.2-.606,3.013,3.013,0,0,0-.347-.573,2.349,2.349,0,0,0-.515-.49,2.593,2.593,0,0,0-.7-.338,2.89,2.89,0,0,0-.885-.126h-3.151a2.322,2.322,0,0,0-.669.11,2.06,2.06,0,0,0-.676.356,1.98,1.98,0,0,0-.522.646,2.083,2.083,0,0,0-.21.969v5.728a.126.126,0,0,0,.126.126h1.393a.126.126,0,0,0,.126-.126V17.6a.442.442,0,0,1,.108-.329.457.457,0,0,1,.334-.108h3.14a1.112,1.112,0,0,1,.433.078.93.93,0,0,1,.314.214,1.018,1.018,0,0,1,.206.334,1.7,1.7,0,0,1,.1.437v.632a1.141,1.141,0,0,1-.077.432.917.917,0,0,1-.212.319,1.042,1.042,0,0,1-.332.212,1.494,1.494,0,0,1-.437.1h-3.151a.127.127,0,0,0-.126.126v1.393a.126.126,0,0,0,.126.126h3.151a2.924,2.924,0,0,0,.574-.061,2.875,2.875,0,0,0,.606-.2,2.84,2.84,0,0,0,.576-.348,2.377,2.377,0,0,0,.489-.518,2.547,2.547,0,0,0,.336-.7,2.986,2.986,0,0,0,.124-.89v-.63a2.95,2.95,0,0,0-.062-.576" transform="translate(-78.093 -9.133)" fill="#cdcdcd"/>
      <path id="Caminho_63" data-name="Caminho 63" d="M9.5,4.879a1.674,1.674,0,0,0-1-.333H2.2a.176.176,0,0,1-.175-.175V2.2A.178.178,0,0,1,2.2,2.02H8.431a.156.156,0,0,0,.156-.156V.156A.155.155,0,0,0,8.432,0H2.2A2.2,2.2,0,0,0,0,2.2V4.37a2.2,2.2,0,0,0,2.2,2.2H8.325a.155.155,0,0,1,.1.033l1.9,1.467,1.422-1.454Z" transform="translate(0 0)" fill="#cdcdcd"/>
      <path id="Caminho_64" data-name="Caminho 64" d="M22.1,1.734A1.688,1.688,0,0,0,20.431.025c-.054,0-.107,0-.161.006a2.752,2.752,0,0,0-1.654.8L7.858,11.774a1.215,1.215,0,0,1-.867.363H.953a.178.178,0,0,0-.178.178v1.664a.178.178,0,0,0,.178.178H6.992A3.237,3.237,0,0,0,9.3,13.19L19.77,2.54a.169.169,0,0,1,.306.123V8.611H22.1Z" transform="translate(-0.456 -0.015)" fill="#cdcdcd"/>
      <path id="Caminho_65" data-name="Caminho 65" d="M47.665,28.187v.039a2.5,2.5,0,0,0,2.5,2.5h1.363a.179.179,0,0,0,.179-.177V28.885a.178.178,0,0,0-.178-.178H50.164a.478.478,0,0,1-.478-.478v-.043Z" transform="translate(-28.044 -16.583)" fill="#cdcdcd"/>
      <path id="Caminho_66" data-name="Caminho 66" d="M80.414,7.36H46.64a2.989,2.989,0,0,0-2.39,1.195l-3.584,4.779a.246.246,0,0,1-.177.089H33.2a.155.155,0,0,1-.1-.033l-.767-.591-1.423,1.453,1.111.857a1.681,1.681,0,0,0,1,.333h7.464a2.242,2.242,0,0,0,1.794-.9l3.581-4.777a.968.968,0,0,1,.774-.387H80.412a.165.165,0,0,0,.165-.165V7.523a.165.165,0,0,0-.165-.165" transform="translate(-18.188 -4.329)" fill="#cdcdcd"/>
    </g>
  </g>
</svg>
